# xmcd
#
# Track frame offsets:
#	150
#	25329
#	48654
#	74229
#	90504
#	106929
#	111279
#	131450
#	136475
#	162275
#	178912
#	181237
#	196612
#	215512
#	232237
#	244536
#	254211
#	274236
#	294186
#
# Disc length: 4108 seconds
#
# Revision: 1
# Processed by: cddbd v1.5.2PL0 Copyright (c) Steve Scherf et al.
# Submitted via: audiograbber 1.83.01
#
DISCID=25100a13
DTITLE=Young, Neil - Heart of Gold Live 10CD01
DYEAR=1972
DGENRE=POP-ROCK-JAZZ
TTITLE0=Wooden ships (Crosby, Nash)
TTITLE1=Used to be a king (Crosby, Nash)
TTITLE2=The Lee shore (Crosby, Nash)
TTITLE3=Harvest (Crosby, Nash, Young)
TTITLE4=Only love can break your heart  (Crosby, Nash, Young)
TTITLE5=Talk about prison benefit
TTITLE6=Southbound train (Crosby, Nash, Young)
TTITLE7=Talk: Intro to Crosby solo segment
TTITLE8=Almost cut my hair (Crosby, Nash)
TTITLE9=Page 43 (Crosby, Nash)
TTITLE10=Talk: Intro to Nash solo segment
TTITLE11=And so it goes (Crosby, Nash)
TTITLE12=Immigration man (Crosby, Nash)
TTITLE13=Heart of gold  (Crosby, Nash, Young)
TTITLE14=The needle and the damage done (Crosby, Nash, Young)
TTITLE15=KSAN announcer and talk about prison benefit
TTITLE16=Teach your children (Crosby, Nash, Young)
TTITLE17=Military madness (Crosby, Nash, Young)
TTITLE18=Chicago (Crosby, Nash, Young)
EXTD=
EXTT0=
EXTT1=
EXTT2=
EXTT3=
EXTT4=
EXTT5=
EXTT6=
EXTT7=
EXTT8=
EXTT9=
EXTT10=
EXTT11=
EXTT12=
EXTT13=
EXTT14=
EXTT15=
EXTT16=
EXTT17=
EXTT18=
PLAYORDER=
